<svg width="101" height="40" viewBox="0 0 101 40" fill="none" xmlns="http://www.w3.org/2000/svg">
<path d="M13.333 14.565H17.6V31.57H13.333V29.773C12.5 30.565 11.665 31.135 10.827 31.484C9.989 31.833 9.081 32.008 8.103 32.008C5.907 32.008 4.007 31.156 2.404 29.452C0.801 27.748 0 25.631 0 23.098C0 20.472 0.776 18.32 2.326 16.643C3.877 14.965 5.76 14.127 7.978 14.127C8.998 14.127 9.955 14.32 10.85 14.705C11.745 15.091 12.573 15.669 13.332 16.44V14.564L13.333 14.565ZM8.848 18.066C7.529 18.066 6.433 18.532 5.561 19.465C4.689 20.398 4.253 21.593 4.253 23.052C4.253 24.521 4.697 25.73 5.585 26.678C6.473 27.626 7.566 28.1 8.864 28.1C10.204 28.1 11.315 27.634 12.198 26.701C13.081 25.769 13.522 24.547 13.522 23.036C13.522 21.556 13.08 20.358 12.198 19.441C11.316 18.524 10.199 18.065 8.849 18.065L8.848 18.066Z" fill="black"/>
<path d="M20.5996 15.0019H24.8666V16.9559C25.5966 16.1539 26.4076 15.5549 27.2986 15.1589C28.1896 14.7629 29.1626 14.5649 30.2156 14.5649C31.2786 14.5649 32.2386 14.8249 33.0936 15.3459C33.9486 15.8669 34.6366 16.6279 35.1586 17.6279C35.8366 16.6279 36.6676 15.8669 37.6536 15.3459C38.6386 14.8249 39.7156 14.5649 40.8836 14.5649C42.0926 14.5649 43.1566 14.8459 44.0746 15.4089C44.9926 15.9719 45.6516 16.7059 46.0536 17.6129C46.4546 18.5199 46.6556 19.9939 46.6556 22.0359V32.0079H42.3576V23.3799C42.3576 21.4519 42.1176 20.1469 41.6386 19.4639C41.1596 18.7819 40.4406 18.4399 39.4816 18.4399C38.7516 18.4399 38.0986 18.6489 37.5196 19.0649C36.9416 19.4819 36.5116 20.0569 36.2306 20.7919C35.9496 21.5259 35.8086 22.7069 35.8086 24.3319V32.0059H31.5106V23.7689C31.5106 22.2479 31.3986 21.1459 31.1736 20.4629C30.9486 19.7809 30.6116 19.2729 30.1626 18.9389C29.7136 18.6059 29.1706 18.4389 28.5336 18.4389C27.8236 18.4389 27.1786 18.6499 26.5986 19.0719C26.0186 19.4939 25.5856 20.0859 25.2986 20.8459C25.0116 21.6069 24.8676 22.8049 24.8676 24.4409V32.0059H20.6006V15.0019H20.5996Z" fill="black"/>
<path d="M53.8923 8V16.44C54.6633 15.669 55.4972 15.091 56.3932 14.705C57.2892 14.32 58.2483 14.127 59.2693 14.127C61.4883 14.127 63.3743 14.966 64.9273 16.643C66.4793 18.321 67.2562 20.472 67.2562 23.098C67.2562 25.63 66.4533 27.748 64.8493 29.452C63.2443 31.156 61.3423 32.008 59.1443 32.008C58.1643 32.008 57.2533 31.833 56.4093 31.484C55.5653 31.135 54.7263 30.565 53.8923 29.773V31.57H49.6562V8H53.8923V8ZM58.3783 18.066C57.0343 18.066 55.9193 18.525 55.0333 19.442C54.1473 20.359 53.7052 21.557 53.7052 23.037C53.7052 24.548 54.1483 25.77 55.0333 26.702C55.9193 27.635 57.0343 28.101 58.3783 28.101C59.6803 28.101 60.7773 27.627 61.6683 26.679C62.5593 25.731 63.0042 24.522 63.0042 23.053C63.0042 21.594 62.5663 20.399 61.6913 19.466C60.8163 18.534 59.7113 18.067 58.3773 18.067L58.3783 18.066Z" fill="black"/>
<path d="M88.0909 24.3019H74.3829C74.5809 25.5109 75.1099 26.4719 75.9689 27.1859C76.8289 27.8999 77.9249 28.2569 79.2589 28.2569C80.8529 28.2569 82.2229 27.6999 83.3699 26.5839L86.9649 28.2719C86.0689 29.5429 84.9949 30.4839 83.7449 31.0929C82.4949 31.7029 81.0099 32.0079 79.2899 32.0079C76.6219 32.0079 74.4499 31.1669 72.7719 29.4839C71.0939 27.8009 70.2559 25.6939 70.2559 23.1619C70.2559 20.5669 71.0919 18.4129 72.7649 16.6989C74.4379 14.9849 76.5339 14.1279 79.0559 14.1279C81.7339 14.1279 83.9119 14.9849 85.5889 16.6989C87.2669 18.4129 88.1059 20.6769 88.1059 23.4899L88.0899 24.3029L88.0909 24.3019ZM83.8239 20.9419C83.5419 19.9939 82.9859 19.2229 82.1559 18.6289C81.3259 18.0349 80.3639 17.7379 79.2669 17.7379C78.0769 17.7379 77.0329 18.0719 76.1359 18.7379C75.5719 19.1549 75.0499 19.8899 74.5699 20.9419H83.8229H83.8239Z" fill="black"/>
<path d="M91.1074 15.0019H94.7644V17.1429C95.1604 16.2989 95.6864 15.6579 96.3434 15.2209C97.0004 14.7829 97.7194 14.5649 98.5004 14.5649C99.0524 14.5649 99.6304 14.7109 100.235 15.0029L98.9074 18.6759C98.4074 18.4259 97.9954 18.3009 97.6724 18.3009C97.0154 18.3009 96.4614 18.7069 96.0074 19.5199C95.5544 20.3329 95.3274 21.9269 95.3274 24.3029L95.3424 25.1309V32.0079H91.1064V15.0019H91.1074Z" fill="black"/>
</svg>
