<svg width="46" height="46" viewBox="0 0 46 46" fill="none" xmlns="http://www.w3.org/2000/svg">
<g id="Frame 626412">
<g id="Group 38776">
<path id="Ellipse 244" d="M42.4 17.4217C42.4 24.9793 36.2922 31.1029 28.7617 31.1029C21.2312 31.1029 15.1234 24.9793 15.1234 17.4217C15.1234 9.86417 21.2312 3.74063 28.7617 3.74063C36.2922 3.74063 42.4 9.86417 42.4 17.4217Z" fill="#FDC8D3" stroke="black" stroke-width="1.2"/>
<g id="Vector">
<path d="M7.55212 30.2685H1.33601C1.15044 30.2685 1 30.4189 1 30.6045V44.5927C1 44.7783 1.15044 44.9287 1.33601 44.9287H7.55212C7.7377 44.9287 7.88813 44.7783 7.88813 44.5927V30.6045C7.88813 30.4189 7.7377 30.2685 7.55212 30.2685Z" fill="#FDC8D3"/>
<path d="M11.2675 29.1613C10.9087 30.4624 9.7252 31.3638 8.3755 31.3638H7.93013V43.6228L9.90484 44.2769C11.6293 44.8482 13.4341 45.1394 15.2507 45.1394H24.3095C25.4235 45.1394 26.3265 44.2363 26.3265 43.1224C26.3265 42.021 25.4429 41.1232 24.3416 41.1057L21.0344 41.053H24.7074C25.8104 41.053 26.7045 40.1589 26.7045 39.0559C26.7045 37.9664 25.8313 37.078 24.7419 37.0591L21.8324 37.0088H25.1811C26.3472 37.0088 27.2925 36.0635 27.2925 34.8974C27.2925 33.7519 26.3791 32.8153 25.234 32.7866L22.2524 32.7118H26.7924C27.9208 32.7118 28.8356 31.7971 28.8356 30.6687C28.8356 29.5403 27.9222 28.6255 26.7938 28.6255H18.0016C17.3344 28.6255 16.8565 27.982 17.007 27.332C18.2815 21.8274 16.3304 19.9329 14.674 19.557C14.243 19.4591 13.8561 19.7744 13.7386 20.2005L11.2675 29.1613Z" fill="white"/>
<path d="M7.93013 31.3638V30.7638H7.33013V31.3638H7.93013ZM13.7386 20.2005L14.317 20.36V20.36L13.7386 20.2005ZM14.674 19.557L14.8068 18.9719L14.674 19.557ZM22.2524 32.7118V32.1118C21.924 32.1118 21.6566 32.3759 21.6525 32.7043C21.6483 33.0327 21.909 33.3034 22.2374 33.3116L22.2524 32.7118ZM25.234 32.7866L25.219 33.3864L25.234 32.7866ZM21.8324 37.0088V36.4088C21.503 36.4088 21.2353 36.6743 21.2324 37.0036C21.2296 37.333 21.4927 37.603 21.822 37.6087L21.8324 37.0088ZM24.7419 37.0591L24.7523 36.4592L24.7419 37.0591ZM21.0344 41.053V40.453C20.7049 40.453 20.437 40.7187 20.4344 41.0482C20.4318 41.3777 20.6954 41.6477 21.0248 41.6529L21.0344 41.053ZM24.3416 41.1057L24.3512 40.5057L24.3416 41.1057ZM7.93013 43.6228H7.33013V44.0561L7.74145 44.1923L7.93013 43.6228ZM9.90484 44.2769L9.71616 44.8465L9.90484 44.2769ZM11.2675 29.1613L10.6891 29.0018L11.2675 29.1613ZM1.33601 30.8685H7.55212V29.6685H1.33601V30.8685ZM7.28813 30.6045V44.5927H8.48813V30.6045H7.28813ZM7.55212 44.3287H1.33601V45.5287H7.55212V44.3287ZM1.6 44.5927V30.6045H0.4V44.5927H1.6ZM1.33601 44.3287C1.48181 44.3287 1.6 44.4469 1.6 44.5927H0.4C0.4 45.1097 0.819064 45.5287 1.33601 45.5287V44.3287ZM7.28813 44.5927C7.28813 44.4469 7.40633 44.3287 7.55212 44.3287V45.5287C8.06906 45.5287 8.48813 45.1097 8.48813 44.5927H7.28813ZM7.55212 30.8685C7.40632 30.8685 7.28813 30.7503 7.28813 30.6045H8.48813C8.48813 30.0875 8.06907 29.6685 7.55212 29.6685V30.8685ZM1.33601 29.6685C0.819064 29.6685 0.4 30.0875 0.4 30.6045H1.6C1.6 30.7503 1.48181 30.8685 1.33601 30.8685V29.6685ZM7.93013 31.9638H8.3755V30.7638H7.93013V31.9638ZM11.846 29.3208L14.317 20.36L13.1602 20.041L10.6891 29.0018L11.846 29.3208ZM14.5413 20.1421C15.1971 20.2909 15.9373 20.7403 16.391 21.7643C16.8541 22.8095 17.0437 24.5135 16.4225 27.1966L17.5915 27.4673C18.2448 24.6458 18.0961 22.6503 17.4881 21.2782C16.8708 19.8848 15.8074 19.1989 14.8068 18.9719L14.5413 20.1421ZM18.0016 29.2255H26.7938V28.0255H18.0016V29.2255ZM26.7924 32.1118H22.2524V33.3118H26.7924V32.1118ZM22.2374 33.3116L25.219 33.3864L25.249 32.1868L22.2674 32.112L22.2374 33.3116ZM25.1811 36.4088H21.8324V37.6088H25.1811V36.4088ZM21.822 37.6087L24.7315 37.659L24.7523 36.4592L21.8428 36.4089L21.822 37.6087ZM24.7074 40.453H21.0344V41.653H24.7074V40.453ZM21.0248 41.6529L24.3321 41.7056L24.3512 40.5057L21.0439 40.4531L21.0248 41.6529ZM24.3095 44.5394H15.2507V45.7394H24.3095V44.5394ZM10.0935 43.7074L8.11881 43.0532L7.74145 44.1923L9.71616 44.8465L10.0935 43.7074ZM8.53013 43.6228V31.3638H7.33013V43.6228H8.53013ZM25.7265 43.1224C25.7265 43.905 25.0921 44.5394 24.3095 44.5394V45.7394C25.7548 45.7394 26.9265 44.5677 26.9265 43.1224H25.7265ZM26.1045 39.0559C26.1045 39.8275 25.479 40.453 24.7074 40.453V41.653C26.1417 41.653 27.3045 40.4903 27.3045 39.0559H26.1045ZM24.7315 37.659C25.4936 37.6722 26.1045 38.2937 26.1045 39.0559H27.3045C27.3045 37.6391 26.1689 36.4837 24.7523 36.4592L24.7315 37.659ZM26.6925 34.8974C26.6925 35.7321 26.0158 36.4088 25.1811 36.4088V37.6088C26.6786 37.6088 27.8925 36.3949 27.8925 34.8974H26.6925ZM28.2356 30.6687C28.2356 31.4657 27.5894 32.1118 26.7924 32.1118V33.3118C28.2522 33.3118 29.4356 32.1284 29.4356 30.6687H28.2356ZM26.7938 29.2255C27.5903 29.2255 28.2356 29.8711 28.2356 30.6687H29.4356C29.4356 29.2094 28.2541 28.0255 26.7938 28.0255V29.2255ZM25.219 33.3864C26.0387 33.407 26.6925 34.0774 26.6925 34.8974H27.8925C27.8925 33.4264 26.7196 32.2237 25.249 32.1868L25.219 33.3864ZM24.3321 41.7056C25.1057 41.7179 25.7265 42.3486 25.7265 43.1224H26.9265C26.9265 41.6933 25.7801 40.5285 24.3512 40.5057L24.3321 41.7056ZM14.317 20.36C14.3422 20.2689 14.3935 20.2025 14.441 20.168C14.4822 20.1382 14.5122 20.1355 14.5413 20.1421L14.8068 18.9719C13.9725 18.7825 13.3359 19.404 13.1602 20.041L14.317 20.36ZM16.4225 27.1966C16.1912 28.1954 16.9208 29.2255 18.0016 29.2255V28.0255C17.748 28.0255 17.5218 27.7686 17.5915 27.4673L16.4225 27.1966ZM15.2507 44.5394C13.4982 44.5394 11.7571 44.2585 10.0935 43.7074L9.71616 44.8465C11.5015 45.4379 13.37 45.7394 15.2507 45.7394V44.5394ZM8.3755 31.9638C9.99515 31.9638 11.4154 30.8822 11.846 29.3208L10.6891 29.0018C10.4021 30.0427 9.45526 30.7638 8.3755 30.7638V31.9638Z" fill="black"/>
</g>
<path id="$" d="M33.6739 19.8512C33.6739 20.9684 33.2868 21.8611 32.5127 22.5293C31.7386 23.187 30.6664 23.5211 29.296 23.5316V24.8784H28.637V23.5159C27.4131 23.4219 26.3513 23.0461 25.4517 22.3883C24.5626 21.7201 24.0552 20.7335 23.9297 19.4284H26.2677C26.4246 20.0966 26.7122 20.603 27.1307 20.9475C27.5491 21.292 28.0512 21.5009 28.637 21.5739V18.1285L28.5115 18.0972C27.6119 17.8988 26.8848 17.6952 26.3304 17.4864C25.7865 17.2776 25.3157 16.9487 24.9182 16.4998C24.5207 16.0508 24.322 15.4348 24.322 14.6518C24.322 13.9001 24.505 13.2632 24.8712 12.7411C25.2373 12.2087 25.7394 11.8119 26.3775 11.5509C27.0156 11.2794 27.7426 11.1437 28.5586 11.1437H28.637V9.79688H29.296V11.1907C30.363 11.3056 31.2679 11.6814 32.0106 12.3183C32.7533 12.9552 33.2031 13.8217 33.36 14.918H31.0535C30.9384 14.4377 30.7292 14.0514 30.4258 13.7591C30.1224 13.4668 29.7459 13.2684 29.296 13.164V16.1709H29.3117C30.2218 16.3693 30.9645 16.5781 31.5399 16.7973C32.1257 17.0166 32.6278 17.3716 33.0462 17.8623C33.4647 18.353 33.6739 19.016 33.6739 19.8512ZM26.5658 14.4639C26.5658 14.8919 26.7384 15.2156 27.0836 15.4348C27.4393 15.6541 27.9571 15.8472 28.637 16.0143V13.07H28.5115C27.9257 13.07 27.455 13.1953 27.0993 13.4459C26.7436 13.686 26.5658 14.0253 26.5658 14.4639ZM29.296 21.6053C29.9342 21.5948 30.4415 21.4539 30.8181 21.1824C31.2051 20.9005 31.3987 20.4933 31.3987 19.9609C31.3987 19.491 31.2208 19.136 30.8652 18.8959C30.5095 18.6558 29.9865 18.447 29.296 18.2695V21.6053Z" fill="white"/>
</g>
</g>
</svg>
