<svg width="46" height="46" viewBox="0 0 46 46" fill="none" xmlns="http://www.w3.org/2000/svg">
<g id="Frame 626410" clip-path="url(#clip0_5185_78617)">
<g id="Group 38773">
<path id="Vector 537" d="M21.9141 9.20619V17.246L26.9358 11.5119V9.20619C26.9358 7.81947 25.8117 6.69531 24.4249 6.69531C23.0382 6.69531 21.9141 7.81947 21.9141 9.20619Z" fill="white" stroke="black" stroke-width="1.2" stroke-linecap="round"/>
<path id="Vector 535" d="M7.78003 43.2808L16.2857 32.341L25.9124 41.0995L23.1673 44.9525C22.9046 45.3212 22.4798 45.5401 22.0271 45.5401H8.88527C7.72037 45.5401 7.06501 44.2004 7.78003 43.2808Z" fill="#FDC8D3" stroke="black" stroke-width="1.2" stroke-linecap="round"/>
<g id="Vector 536">
<path d="M16.8262 22.5864L30.8583 7.06238C31.8477 5.96777 33.5343 5.87452 34.6383 6.85339C35.6996 7.79429 35.8479 9.39753 34.9774 10.5172L25.1122 23.2055L28.5328 19.0212C29.5456 17.7823 31.3678 17.5918 32.6149 18.5943C33.8853 19.6155 34.0712 21.4801 33.0273 22.7319L27.8513 28.9396L32.394 23.5599C33.4066 22.3607 35.2092 22.2339 36.3797 23.2794C37.485 24.2666 37.6243 25.9463 36.6966 27.1022L32.6448 32.1506L35.9232 28.1078C36.889 26.9167 38.6337 26.7251 39.8351 27.6781C41.0321 28.6276 41.2312 30.3684 40.2795 31.5637L36.6587 36.1115C32.5548 41.2661 25.0442 42.1062 19.9029 37.9856L17.9357 36.409C13.6566 32.9795 13.1489 26.6545 16.8262 22.5864Z" fill="white"/>
<path d="M30.8583 7.06238L31.3034 7.46472L30.8583 7.06238ZM16.8262 22.5864L16.381 22.184L16.8262 22.5864ZM17.9357 36.409L17.5605 36.8772L17.9357 36.409ZM19.9029 37.9856L20.2781 37.5174L19.9029 37.9856ZM36.6587 36.1115L37.1281 36.4852L36.6587 36.1115ZM40.2795 31.5637L39.8101 31.19L40.2795 31.5637ZM35.9232 28.1078L36.3892 28.4857L35.9232 28.1078ZM32.6448 32.1506L32.1769 31.7751C31.9698 32.033 32.0106 32.4099 32.2681 32.6176C32.5255 32.8253 32.9025 32.7855 33.1108 32.5285L32.6448 32.1506ZM36.6966 27.1022L36.2287 26.7266L36.2287 26.7266L36.6966 27.1022ZM32.394 23.5599L32.8524 23.947H32.8524L32.394 23.5599ZM27.8513 28.9396L27.3905 28.5553C27.1787 28.8093 27.2123 29.1867 27.4656 29.3992C27.7189 29.6117 28.0964 29.5793 28.3097 29.3267L27.8513 28.9396ZM33.0273 22.7319L32.5665 22.3477L33.0273 22.7319ZM28.5328 19.0212L28.9974 19.4009L28.5328 19.0212ZM25.1122 23.2055L24.6385 22.8372C24.4368 23.0966 24.4813 23.4699 24.7381 23.6747C24.995 23.8795 25.3688 23.8396 25.5767 23.5853L25.1122 23.2055ZM34.9774 10.5172L35.4511 10.8855V10.8855L34.9774 10.5172ZM32.6149 18.5943L32.239 19.0619L32.6149 18.5943ZM36.3797 23.2794L35.98 23.7269H35.98L36.3797 23.2794ZM39.8351 27.6781L40.208 27.208L39.8351 27.6781ZM34.6383 6.85339L34.2403 7.30234V7.30234L34.6383 6.85339ZM30.4132 6.66005L16.381 22.184L17.2713 22.9887L31.3034 7.46472L30.4132 6.66005ZM17.5605 36.8772L19.5277 38.4538L20.2781 37.5174L18.3109 35.9408L17.5605 36.8772ZM37.1281 36.4852L40.7489 31.9374L39.8101 31.19L36.1893 35.7378L37.1281 36.4852ZM35.4572 27.7299L32.1788 31.7727L33.1108 32.5285L36.3892 28.4857L35.4572 27.7299ZM33.1127 32.5262L37.1646 27.4777L36.2287 26.7266L32.1769 31.7751L33.1127 32.5262ZM31.9356 23.1728L27.3929 28.5525L28.3097 29.3267L32.8524 23.947L31.9356 23.1728ZM28.3121 29.3238L33.4882 23.1162L32.5665 22.3477L27.3905 28.5553L28.3121 29.3238ZM28.0683 18.6414L24.6476 22.8258L25.5767 23.5853L28.9974 19.4009L28.0683 18.6414ZM25.5858 23.5738L35.4511 10.8855L34.5037 10.1489L24.6385 22.8372L25.5858 23.5738ZM32.9909 18.1266C31.4869 16.9177 29.2896 17.1475 28.0683 18.6414L28.9974 19.4009C29.8016 18.4171 31.2486 18.2658 32.239 19.0619L32.9909 18.1266ZM33.4882 23.1162C34.7469 21.6066 34.5228 19.3581 32.9909 18.1266L32.239 19.0619C33.2479 19.8729 33.3954 21.3536 32.5665 22.3477L33.4882 23.1162ZM36.7794 22.8319C35.3568 21.5613 33.1661 21.7155 31.9356 23.1728L32.8524 23.947C33.647 23.006 35.0615 22.9065 35.98 23.7269L36.7794 22.8319ZM37.1646 27.4777C38.2919 26.073 38.1227 24.0317 36.7794 22.8319L35.98 23.7269C36.8474 24.5016 36.9566 25.8196 36.2287 26.7266L37.1646 27.4777ZM36.3892 28.4857C37.1479 27.55 38.5184 27.3995 39.4622 28.1481L40.208 27.208C38.7489 26.0506 36.6301 26.2834 35.4572 27.7299L36.3892 28.4857ZM40.7489 31.9374C41.9072 30.4826 41.6649 28.3638 40.208 27.208L39.4622 28.1481C40.3992 28.8915 40.5551 30.2543 39.8101 31.19L40.7489 31.9374ZM19.5277 38.4538C24.9281 42.7821 32.8173 41.8997 37.1281 36.4852L36.1893 35.7378C32.2923 40.6326 25.1603 41.4303 20.2781 37.5174L19.5277 38.4538ZM35.4511 10.8855C36.5158 9.51606 36.3343 7.55521 35.0364 6.40443L34.2403 7.30234C35.0648 8.03337 35.1801 9.279 34.5037 10.1489L35.4511 10.8855ZM16.381 22.184C12.4722 26.5084 13.0119 33.2317 17.5605 36.8772L18.3109 35.9408C14.3013 32.7273 13.8256 26.8007 17.2713 22.9887L16.381 22.184ZM31.3034 7.46472C32.0721 6.61426 33.3825 6.54182 34.2403 7.30234L35.0364 6.40444C33.686 5.20722 31.6233 5.32127 30.4132 6.66005L31.3034 7.46472Z" fill="black"/>
</g>
<path id="Vector 538" d="M7.94326 6.00842L8.24277 6.19L8.54814 6.01848C9.12296 5.69562 10.1721 5.16145 11.2793 4.89704C12.4077 4.62759 13.4278 4.67542 14.1228 5.27871C15.1021 6.12879 16.1869 8.34882 15.7254 10.9777C15.2795 13.5169 13.3642 16.5328 8.25189 18.9991C3.03391 16.5289 1.07821 13.4604 0.680843 10.9062C0.269045 8.25908 1.49755 6.08044 2.72108 5.33868C3.7099 4.73921 4.74831 4.74408 5.69333 4.98846C6.6482 5.23539 7.45993 5.7154 7.94326 6.00842Z" fill="#FDC8D3" stroke="black" stroke-width="1.2" stroke-linecap="round"/>
</g>
</g>
<defs>
<clipPath id="clip0_5185_78617">
<rect width="46" height="46" fill="white"/>
</clipPath>
</defs>
</svg>
