<svg width="22" height="22" viewBox="0 0 22 22" fill="none" xmlns="http://www.w3.org/2000/svg">
<g clip-path="url(#clip0_418_33890)">
<path d="M22 11C22 17.0751 17.0751 22 11 22C4.92491 22 0 17.0751 0 11C0 11.0026 11 0.00124609 11 0C17.0751 0 22 4.92491 22 11Z" fill="#0052B4"/>
<path d="M10.9707 11.0001H11.0001C11.0001 10.9902 11.0001 10.9806 11.0001 10.9707C10.9903 10.9805 10.9805 10.9903 10.9707 11.0001Z" fill="#F0F0F0"/>
<path d="M11 5.73912C11 3.80359 11 2.53528 11 0H10.9982C4.92387 0.000988281 0 4.92542 0 11H5.73912V7.76819L8.97089 11H10.9706C10.9804 10.9902 10.9902 10.9804 11 10.9705C11 10.2294 11 9.5682 11 8.97093L7.76823 5.73912H11Z" fill="#F0F0F0"/>
<path d="M5.5649 1.43457C3.84447 2.41421 2.41421 3.84447 1.43457 5.5649V10.9998H4.30415V4.3042V4.30415H10.9998C10.9998 3.3991 10.9998 2.53689 10.9998 1.43457H5.5649Z" fill="#D80027"/>
<path d="M11.0001 9.64688L7.09196 5.73879H5.73926C5.73926 5.73875 5.73926 5.73879 5.73926 5.73879L11.0001 10.9996H11.0001C11.0001 10.9996 11.0001 10.0669 11.0001 9.64688Z" fill="#D80027"/>
<path d="M6.63443 12.9131L7.23814 14.1754L8.60141 13.8603L7.99091 15.1194L9.08721 15.9888L7.72222 16.2964L7.72605 17.6957L6.63443 16.8203L5.54285 17.6957L5.54667 16.2964L4.18164 15.9888L5.27799 15.1194L4.6674 13.8603L6.03076 14.1754L6.63443 12.9131Z" fill="#F0F0F0"/>
<path d="M16.4695 15.3047L16.7714 15.9359L17.453 15.7783L17.1478 16.4078L17.6959 16.8425L17.0134 16.9964L17.0153 17.696L16.4695 17.2583L15.9237 17.696L15.9256 16.9964L15.2432 16.8425L15.7913 16.4078L15.4861 15.7783L16.1677 15.9359L16.4695 15.3047Z" fill="#F0F0F0"/>
<path d="M13.661 8.60889L13.9628 9.2401L14.6445 9.08249L14.3392 9.71202L14.8874 10.1467L14.2049 10.3006L14.2067 11.0002L13.661 10.5625L13.1152 11.0002L13.117 10.3006L12.4346 10.1467L12.9827 9.71202L12.6775 9.08249L13.3591 9.2401L13.661 8.60889Z" fill="#F0F0F0"/>
<path d="M16.4695 4.78271L16.7714 5.41393L17.453 5.25636L17.1478 5.88589L17.6959 6.32057L17.0134 6.47444L17.0153 7.17405L16.4695 6.73633L15.9237 7.17405L15.9256 6.47444L15.2432 6.32057L15.7913 5.88589L15.4861 5.25636L16.1677 5.41393L16.4695 4.78271Z" fill="#F0F0F0"/>
<path d="M18.9227 7.65234L19.2245 8.28355L19.9062 8.12594L19.6009 8.75548L20.1491 9.1902L19.4666 9.34407L19.4684 10.0436L18.9227 9.60596L18.3769 10.0436L18.3788 9.34407L17.6963 9.1902L18.2444 8.75548L17.9392 8.12594L18.6208 8.28355L18.9227 7.65234Z" fill="#F0F0F0"/>
<path d="M17.1689 11L17.4063 11.7307H18.1746L17.553 12.1824L17.7905 12.9131L17.1689 12.4615L16.5473 12.9131L16.7847 12.1824L16.1631 11.7307H16.9314L17.1689 11Z" fill="#F0F0F0"/>
</g>
<defs>
<clipPath id="clip0_418_33890">
<rect width="22" height="22" fill="white"/>
</clipPath>
</defs>
</svg>
