<svg width="22" height="22" viewBox="0 0 22 22" fill="none" xmlns="http://www.w3.org/2000/svg">
<g clip-path="url(#clip0_418_33906)">
<path d="M11 22C17.0751 22 22 17.0751 22 11C22 4.92487 17.0751 0 11 0C4.92487 0 0 4.92487 0 11C0 17.0751 4.92487 22 11 22Z" fill="#F0F0F0"/>
<path d="M22.0001 10.9998C22.0001 6.27028 19.015 2.23826 14.8262 0.684082V21.3157C19.015 19.7614 22.0001 15.7295 22.0001 10.9998Z" fill="#FF9811"/>
<path d="M0 10.9998C0 15.7295 2.98513 19.7614 7.17393 21.3157V0.684082C2.98513 2.23826 0 6.27028 0 10.9998Z" fill="#6DA544"/>
</g>
<defs>
<clipPath id="clip0_418_33906">
<rect width="22" height="22" fill="white"/>
</clipPath>
</defs>
</svg>
