<svg width="22" height="22" viewBox="0 0 22 22" fill="none" xmlns="http://www.w3.org/2000/svg">
<g clip-path="url(#clip0_418_33910)">
<path d="M11 22C17.0751 22 22 17.0751 22 11C22 4.92487 17.0751 0 11 0C4.92487 0 0 4.92487 0 11C0 17.0751 4.92487 22 11 22Z" fill="#F0F0F0"/>
<path d="M21.9996 10.9998C21.9996 6.63875 19.4617 2.87056 15.7822 1.09131V20.9083C19.4617 19.1291 21.9996 15.3609 21.9996 10.9998Z" fill="#D80027"/>
<path d="M0 10.9998C0 15.3609 2.53795 19.1291 6.21741 20.9083V1.09131C2.53795 2.87056 0 6.63875 0 10.9998Z" fill="#D80027"/>
<path d="M12.9129 12.4344L14.826 11.4779L13.8695 10.9997V10.0432L11.9564 10.9997L12.9129 9.08662H11.9564L10.9999 7.65186L10.0434 9.08662H9.08684L10.0434 10.9997L8.13031 10.0432V10.9997L7.17383 11.4779L9.08684 12.4344L8.6086 13.391H10.5217V14.8257H11.4781V13.391H13.3912L12.9129 12.4344Z" fill="#D80027"/>
</g>
<defs>
<clipPath id="clip0_418_33910">
<rect width="22" height="22" fill="white"/>
</clipPath>
</defs>
</svg>
