<svg width="22" height="22" viewBox="0 0 22 22" fill="none" xmlns="http://www.w3.org/2000/svg">
<g clip-path="url(#clip0_418_33916)">
<path d="M0 10.9999C0 12.3454 0.242043 13.6343 0.684191 14.8259L11 15.7825L21.3158 14.8259C21.758 13.6343 22 12.3454 22 10.9999C22 9.65436 21.758 8.36546 21.3158 7.17381L11 6.21729L0.684191 7.17381C0.242043 8.36546 0 9.65436 0 10.9999H0Z" fill="#FFDA44"/>
<path d="M21.3162 7.17393C19.762 2.98517 15.73 0 11.0004 0C6.27077 0 2.23879 2.98517 0.68457 7.17393H21.3162Z" fill="#D80027"/>
<path d="M0.68457 14.8262C2.23879 19.0149 6.27077 22.0001 11.0004 22.0001C15.73 22.0001 19.762 19.0149 21.3162 14.8262H0.68457Z" fill="#D80027"/>
</g>
<defs>
<clipPath id="clip0_418_33916">
<rect width="22" height="22" fill="white"/>
</clipPath>
</defs>
</svg>
