<svg width="22" height="22" viewBox="0 0 22 22" fill="none" xmlns="http://www.w3.org/2000/svg">
<g clip-path="url(#clip0_418_33921)">
<path d="M0.68457 14.8261C2.23879 19.0149 6.27077 22 11.0004 22C15.73 22 19.762 19.0149 21.3162 14.8261L11.0004 13.8696L0.68457 14.8261Z" fill="#FFDA44"/>
<path d="M11.0004 0C6.27077 0 2.23879 2.98513 0.68457 7.17393L11.0004 8.13042L21.3162 7.17389C19.762 2.98512 15.73 0 11.0004 0Z" fill="black"/>
<path d="M0.684191 7.17383C0.242043 8.36548 0 9.65437 0 10.9999C0 12.3454 0.242043 13.6343 0.684191 14.826H21.3159C21.758 13.6343 22 12.3454 22 10.9999C22 9.65437 21.758 8.36548 21.3158 7.17383H0.684191Z" fill="#D80027"/>
</g>
<defs>
<clipPath id="clip0_418_33921">
<rect width="22" height="22" fill="white"/>
</clipPath>
</defs>
</svg>
