<svg width="46" height="46" viewBox="0 0 46 46" fill="none" xmlns="http://www.w3.org/2000/svg">
<g clip-path="url(#clip0_11665_122075)">
<path d="M10.7364 40.34L11.7655 29.3225C11.8656 28.2505 12.7963 27.4502 13.8712 27.5118L23.8902 28.0859L31.9496 27.6241C33.0119 27.5632 33.9358 28.3447 34.052 29.4023L35.2458 40.2648C35.2888 40.6554 35.2246 41.0561 34.9876 41.3696C33.7463 43.0113 30.091 45.5413 22.8424 45.5413C15.5222 45.5413 12.04 42.961 10.9447 41.3211C10.7532 41.0344 10.7044 40.6833 10.7364 40.34Z" fill="#FDC8D3" stroke="black" stroke-width="1.2"/>
<path d="M19.8947 17.1779L2.30969 24.2042C1.47301 24.5385 1.47047 25.7219 2.3057 26.0598L19.863 33.1627C21.7753 33.9363 23.9124 33.9413 25.8283 33.1768L43.6581 26.0616C44.4992 25.7259 44.4967 24.5345 43.6542 24.2025L25.7964 17.1641C23.8993 16.4164 21.7883 16.4213 19.8947 17.1779Z" fill="white" stroke="black" stroke-width="1.2"/>
<path d="M6.82899 45.6327C6.1699 45.4188 5.36317 45.1561 4.53609 44.8852C3.76978 44.6342 3.54728 43.5491 3.99163 42.8762C5.28173 40.9225 6.09284 37.9374 6.46554 35.7321C8.17037 37.8467 8.29443 42.1284 8.08781 44.8149C8.04009 45.4354 7.42087 45.8248 6.82899 45.6327Z" fill="white"/>
<path d="M23.0504 22.1606L12.4672 26.496C10.3366 27.2946 6.70639 28.7043 6.70639 33.4504C6.70639 33.9657 6.62721 34.7756 6.46554 35.7321M6.46554 35.7321C6.09284 37.9374 5.28173 40.9225 3.99163 42.8762C3.54728 43.5491 3.76978 44.6342 4.53609 44.8852C5.36317 45.1561 6.1699 45.4188 6.82899 45.6327C7.42087 45.8248 8.04009 45.4354 8.08781 44.8149C8.29443 42.1284 8.17037 37.8467 6.46554 35.7321Z" stroke="black" stroke-width="1.2" stroke-linecap="round"/>
</g>
<defs>
<clipPath id="clip0_11665_122075">
<rect width="46" height="46" fill="white"/>
</clipPath>
</defs>
</svg>
