<svg width="46" height="46" viewBox="0 0 46 46" fill="none" xmlns="http://www.w3.org/2000/svg">
<path d="M0.6 34.525H41.6625V43.0001C41.6625 44.3255 40.588 45.4 39.2625 45.4H3C1.67452 45.4 0.6 44.3255 0.6 43V34.525Z" stroke="#111928" stroke-width="1.2"/>
<path d="M4.4 33V33.6H5H37H37.6V33V21C37.6 19.0118 35.9882 17.4 34 17.4H8C6.01178 17.4 4.4 19.0118 4.4 21V33Z" stroke="#111928" stroke-width="1.2"/>
<path d="M2.58789 30.875C2.58789 28.1136 4.82647 25.875 7.58789 25.875H16.2754C19.0368 25.875 21.2754 28.1136 21.2754 30.875V34.5H2.58789V30.875Z" fill="#FDC8D3" stroke="#111928" stroke-width="1.2"/>
<path d="M21.2754 30.875C21.2754 28.1136 23.514 25.875 26.2754 25.875H34.9629C37.7243 25.875 39.9629 28.1136 39.9629 30.875V34.5H21.2754V30.875Z" fill="#FDC8D3" stroke="#111928" stroke-width="1.2"/>
<path d="M31.9792 0.800943C32.1213 0.48834 32.5654 0.488339 32.7075 0.800943L33.7639 3.12461C33.8039 3.21263 33.8745 3.28318 33.9625 3.3232L36.2862 4.37962C36.5988 4.52173 36.5988 4.96577 36.2862 5.10788L33.9625 6.1643C33.8745 6.20432 33.8039 6.27487 33.7639 6.36289L32.7075 8.68656C32.5654 8.99916 32.1213 8.99916 31.9792 8.68656L30.9228 6.36289C30.8828 6.27487 30.8122 6.20432 30.7242 6.1643L28.4006 5.10788C28.0879 4.96577 28.0879 4.52174 28.4006 4.37962L30.7242 3.3232C30.8122 3.28318 30.8828 3.21263 30.9228 3.12461L31.9792 0.800943Z" fill="#111928"/>
<path d="M42.6175 9.13834C42.7596 8.82574 43.2037 8.82574 43.3458 9.13835L43.8631 10.2761C43.9031 10.3642 43.9736 10.4347 44.0616 10.4747L45.1994 10.992C45.5121 11.1341 45.5121 11.5782 45.1994 11.7203L44.0616 12.2376C43.9736 12.2776 43.9031 12.3481 43.8631 12.4362L43.3458 13.574C43.2037 13.8866 42.7596 13.8866 42.6175 13.574L42.1002 12.4362C42.0602 12.3481 41.9897 12.2776 41.9016 12.2376L40.7638 11.7203C40.4512 11.5782 40.4512 11.1341 40.7638 10.992L41.9016 10.4747C41.9897 10.4347 42.0602 10.3642 42.1002 10.2761L42.6175 9.13834Z" fill="#111928"/>
</svg>
