<svg width="46" height="46" viewBox="0 0 46 46" fill="none" xmlns="http://www.w3.org/2000/svg">
<circle cx="17" cy="29" r="16" fill="white" stroke="black" stroke-width="1.2"/>
<path d="M16.0515 14.4769L15.4612 13.2563C7.27847 13.9233 3.22343 20.2677 2.21875 23.3565C2.28288 23.6344 2.68047 24.7161 3.75783 26.8195C5.10452 29.4487 10.6196 29.7694 11.9983 30.9878C12.7092 31.6161 12.9788 32.6776 13.0492 33.5905C13.1105 34.3864 13.3899 35.1809 13.996 35.7004L14.2522 35.92C14.6126 36.2289 14.82 36.6798 14.82 37.1544V39.7334C14.82 40.6977 15.4796 41.537 16.4166 41.765C17.5113 42.0312 18.6201 41.3824 18.9241 40.2976L19.4968 38.254C19.6867 37.5763 20.0975 36.9814 20.664 36.5637L21.565 35.8994C22.4449 35.2505 22.9642 34.2223 22.9642 33.129V32.8932C22.9642 32.0118 22.5693 31.1767 21.8879 30.6177C20.9667 29.8618 19.812 29.4487 18.6204 29.4487H16.9389C16.3265 29.4487 15.7233 29.299 15.182 29.0126L12.3654 27.5225C11.6203 27.1284 11.3142 26.2201 11.6685 25.4553C12.0038 24.732 12.8242 24.3703 13.5843 24.6106L15.1288 25.0991C15.6506 25.2641 16.219 25.0701 16.531 24.6205C16.8621 24.1433 16.8204 23.5008 16.4304 23.0704L14.9779 21.4677C14.5944 21.0444 14.5852 20.4021 14.9566 19.9682L15.4092 19.4394C16.59 18.0597 16.8421 16.1118 16.0515 14.4769Z" fill="#FDC8D3" stroke="black" stroke-width="1.2" stroke-linecap="round"/>
<path d="M28.6441 22.1999L30.7553 21.1443C33.1665 25.1202 33.0211 29.6627 32.647 31.4369L29.2271 30.3035C27.9088 29.8666 26.8745 28.8324 26.4376 27.5142C25.7503 25.4405 26.6902 23.1768 28.6441 22.1999Z" fill="#FDC8D3" stroke="black" stroke-width="1.2" stroke-linecap="round"/>
</svg>
