<svg width="46" height="46" viewBox="0 0 46 46" fill="none" xmlns="http://www.w3.org/2000/svg">
<g id="Frame 626411" clip-path="url(#clip0_5185_78645)">
<g id="Group 38775">
<path id="Vector 539" d="M2.43118 11.7355C6.56529 11.3009 13.1014 9.72414 17.0368 5.6589C17.2675 5.42063 17.7516 5.41086 18.0298 5.69364C19.6169 7.3073 22.0926 8.57056 24.6502 9.52674C27.2227 10.4885 29.9467 11.1644 32.0915 11.5714C32.7986 11.7055 33.3192 12.3106 33.3389 13.0164C33.3542 13.5641 33.3739 14.134 33.3943 14.7228C33.548 19.1603 33.7391 24.6781 32.3449 29.9604C30.7779 35.8977 27.2106 41.5143 19.2572 44.8497C18.1695 45.3059 16.9351 45.3054 15.8475 44.8487C7.98262 41.5456 4.24101 35.9651 2.47044 30.0618C0.769011 24.389 0.889692 18.4287 0.982033 13.868C0.986373 13.6536 0.990651 13.4423 0.994674 13.2343C1.00941 12.4722 1.62697 11.8201 2.43118 11.7355Z" fill="white" stroke="black" stroke-width="1.2" stroke-linecap="round"/>
<g id="Group 38774">
<path id="Ellipse 243" d="M26.0899 24.6206C26.0899 29.5675 22.1701 33.5552 17.3625 33.5552C12.5549 33.5552 8.63516 29.5675 8.63516 24.6206C8.63516 19.6736 12.5549 15.6859 17.3625 15.6859C22.1701 15.6859 26.0899 19.6736 26.0899 24.6206Z" fill="#84E1BC" stroke="black" stroke-width="1.2"/>
<path id="Vector 523" d="M13.3633 25.1697L15.2555 27.0817C15.6468 27.4772 16.2857 27.4772 16.677 27.0817L21.3582 22.3516" stroke="black" stroke-width="1.2" stroke-linecap="round"/>
</g>
</g>
</g>
<defs>
<clipPath id="clip0_5185_78645">
<rect width="46" height="46" fill="white"/>
</clipPath>
</defs>
</svg>
