<svg width="46" height="46" viewBox="0 0 46 46" fill="none" xmlns="http://www.w3.org/2000/svg">
<g id="Frame 626413">
<g id="Group 38777">
<path id="Vector 542" d="M23.944 26.3593C20.4027 24.0472 15.1707 19.4979 13.1102 13.6334C11.6588 9.50253 12.9509 6.34197 15.2583 4.80593C17.584 3.25771 21.1075 3.24563 24.3466 5.78447C24.9897 6.28852 25.9019 6.26684 26.5255 5.75455C29.5505 3.26957 33.1974 3.31304 35.7055 4.91376C38.1895 6.4992 39.6253 9.65716 38.1387 13.6216C35.9896 19.3525 30.5735 23.9749 26.9326 26.3516C26.0177 26.9488 24.8539 26.9534 23.944 26.3593Z" fill="#FDC8D3" stroke="black" stroke-width="1.2" stroke-linecap="round"/>
<g id="Vector 541">
<path d="M8.79688 29.0703H12.6481C13.2972 29.0703 13.9366 29.2283 14.511 29.5306L19.6963 32.2597C20.2707 32.562 20.9101 32.72 21.5592 32.72H26.0455C28.0611 32.72 29.6952 34.3541 29.6952 36.3697L41.486 30.888C42.6609 30.3418 44.0583 30.7867 44.7011 31.9117C45.4069 33.1468 44.9375 34.7212 43.6707 35.3682L24.9175 44.9465C23.9298 45.4509 22.777 45.5227 21.7344 45.1446L12.959 41.9623C12.5218 41.8038 12.0603 41.7227 11.5953 41.7227H8.79688C8.24459 41.7227 7.79688 41.275 7.79688 40.7227V30.0703C7.79688 29.518 8.24459 29.0703 8.79688 29.0703Z" fill="white"/>
<path d="M29.6952 36.3697V36.3697C29.6952 34.3541 28.0611 32.72 26.0455 32.72H21.5592C20.9101 32.72 20.2707 32.562 19.6963 32.2597L14.511 29.5306C13.9366 29.2283 13.2972 29.0703 12.6481 29.0703H8.79687C8.24459 29.0703 7.79688 29.518 7.79688 30.0703V40.7227C7.79688 41.275 8.24459 41.7227 8.79687 41.7227H11.5953C12.0603 41.7227 12.5218 41.8038 12.959 41.9623L21.7344 45.1446C22.777 45.5227 23.9298 45.4509 24.9175 44.9465L43.6707 35.3682C44.9375 34.7212 45.4069 33.1468 44.7011 31.9117V31.9117C44.0583 30.7867 42.6609 30.3418 41.486 30.888L29.6952 36.3697ZM29.6952 36.3697H18.746M18.746 36.3697C18.2594 36.6536 17.2861 37.562 17.2861 38.9246C17.2861 37.3673 18.2594 36.5725 18.746 36.3697Z" stroke="black" stroke-width="1.2" stroke-linecap="round"/>
</g>
<path id="Vector 540" d="M0.676715 42.7551L1.7473 28.0881C1.76256 27.879 1.93662 27.7172 2.14624 27.7172H8.48926C8.71018 27.7172 8.88926 27.8963 8.88926 28.1172V42.7842C8.88926 43.0051 8.71018 43.1842 8.48926 43.1842H1.07565C0.843271 43.1842 0.659797 42.9869 0.676715 42.7551Z" fill="white" stroke="black" stroke-width="1.2" stroke-linecap="round"/>
</g>
</g>
</svg>
