<svg width="46" height="46" viewBox="0 0 46 46" fill="none" xmlns="http://www.w3.org/2000/svg">
<path d="M1 24.0437L20 8.84375L39 24.0437" stroke="black" stroke-width="1.2" stroke-linecap="round"/>
<path d="M19.9681 8.77605L35.4181 21.4502V41C35.4181 43.4301 33.4482 45.4 31.0181 45.4H8.91797C6.48792 45.4 4.51797 43.4301 4.51797 41V21.4502L19.9681 8.77605Z" fill="white" stroke="black" stroke-width="1.2" stroke-linecap="round"/>
<path d="M28.076 29.1089C28.076 33.6869 24.4488 37.3755 20.002 37.3755C15.5553 37.3755 11.9281 33.6869 11.9281 29.1089C11.9281 24.5308 15.5553 20.8422 20.002 20.8422C24.4488 20.8422 28.076 24.5308 28.076 29.1089Z" fill="#FDC8D3" stroke="black" stroke-width="1.2"/>
<path d="M16.2812 29.6207L17.9911 31.3484C18.3824 31.7439 19.0213 31.7439 19.4127 31.3484L23.716 27" stroke="black" stroke-width="1.2" stroke-linecap="round"/>
<path d="M9.15234 17.4971V12.7969" stroke="black" stroke-width="1.2" stroke-linecap="round"/>
<path d="M29.9812 0.800943C30.1233 0.48834 30.5673 0.488339 30.7094 0.800943L31.7659 3.12461C31.8059 3.21263 31.8764 3.28318 31.9645 3.3232L34.2881 4.37962C34.6007 4.52174 34.6007 4.96576 34.2881 5.10788L31.9645 6.1643C31.8764 6.20432 31.8059 6.27487 31.7659 6.36289L30.7094 8.68656C30.5673 8.99916 30.1233 8.99916 29.9812 8.68656L28.9248 6.36289C28.8847 6.27487 28.8142 6.20432 28.7262 6.1643L26.4025 5.10788C26.0899 4.96576 26.0899 4.52174 26.4025 4.37962L28.7262 3.3232C28.8142 3.28318 28.8847 3.21263 28.9248 3.12461L29.9812 0.800943Z" fill="#111928"/>
<path d="M40.6156 9.13688C40.7577 8.82428 41.2017 8.82428 41.3438 9.13688L41.8611 10.2747C41.9011 10.3627 41.9717 10.4333 42.0597 10.4733L43.1975 10.9906C43.5101 11.1327 43.5101 11.5767 43.1975 11.7188L42.0597 12.2361C41.9717 12.2761 41.9011 12.3467 41.8611 12.4347L41.3438 13.5725C41.2017 13.8851 40.7577 13.8851 40.6156 13.5725L40.0983 12.4347C40.0583 12.3467 39.9877 12.2761 39.8997 12.2361L38.7619 11.7188C38.4493 11.5767 38.4493 11.1327 38.7619 10.9906L39.8997 10.4733C39.9877 10.4333 40.0583 10.3627 40.0983 10.2747L40.6156 9.13688Z" fill="#111928"/>
</svg>
